<svg xmlns="http://www.w3.org/2000/svg" viewBox="0 0 1024 1024" role="img" aria-label="Operion"><rect width="1024" height="1024" rx="225" fill="#0F2A46"/><path transform="translate(177,829) scale(0.4261,-0.4261)" d="M788 -20Q592 -20 437.0 71.0Q282 162 192.5 333.0Q103 504 103 744Q103 985 192.5 1156.5Q282 1328 437.0 1419.0Q592 1510 788 1510Q983 1510 1137.5 1419.0Q1292 1328 1381.5 1156.5Q1471 985 1471 744Q1471 504 1381.5 332.5Q1292 161 1137.5 70.5Q983 -20 788 -20ZM788 219Q909 219 1002.5 279.5Q1096 340 1149.0 457.5Q1202 575 1202 744Q1202 915 1149.0 1032.5Q1096 1150 1002.5 1210.5Q909 1271 788 1271Q666 1271 572.0 1210.0Q478 1149 424.5 1031.5Q371 914 371 744Q371 575 424.5 458.0Q478 341 572.0 280.0Q666 219 788 219Z" fill="#FFFFFF"/></svg>